<svg width="35" height="36" viewBox="0 0 35 36" fill="none" xmlns="http://www.w3.org/2000/svg">
<path d="M5.29383 32.8599C5.23387 33.1166 5.23279 33.3835 5.29067 33.6407C5.34855 33.8978 5.46389 34.1385 5.62804 34.3448C5.7922 34.551 6.0009 34.7174 6.23852 34.8315C6.47613 34.9456 6.73649 35.0045 7.00009 35.0036C7.34577 35.0037 7.68373 34.9014 7.97134 34.7096L17.5001 28.3571L27.029 34.7096C27.327 34.9076 27.6786 35.0094 28.0363 35.0016C28.394 34.9938 28.7408 34.8766 29.0299 34.6658C29.319 34.455 29.5367 34.1607 29.6536 33.8225C29.7704 33.4843 29.781 33.1185 29.6837 32.7741L26.4829 21.5741L34.421 14.4305C34.6752 14.2016 34.8568 13.9032 34.9432 13.5722C35.0297 13.2412 35.0172 12.8921 34.9073 12.5681C34.7975 12.2441 34.595 11.9594 34.3251 11.7492C34.0552 11.539 33.7295 11.4126 33.3885 11.3855L23.4117 10.591L19.0944 1.0342C18.9569 0.726394 18.7333 0.464959 18.4505 0.281446C18.1677 0.0979327 17.8378 0.000185289 17.5007 2.63164e-07C17.1636 -0.000184763 16.8336 0.0972005 16.5506 0.280403C16.2676 0.463605 16.0437 0.724795 15.9059 1.03245L11.5886 10.591L1.61181 11.3838C1.2766 11.4103 0.956143 11.5329 0.688771 11.7368C0.421399 11.9407 0.218435 12.2173 0.10416 12.5336C-0.0101157 12.8498 -0.0308631 13.1923 0.0443999 13.52C0.119663 13.8477 0.287749 14.1468 0.528549 14.3815L7.90309 21.5688L5.29383 32.8599ZM17.5001 6.00423L21.0737 13.916L22.1027 13.9983H22.1044L29.0555 14.5495L23.3312 19.7016L23.3294 19.7051L22.5192 20.4331L22.8184 21.4778V21.4831L25.0112 29.1569L17.5001 24.1501V6.00423Z" fill="#FDAB91"/>
</svg>
