<?xml version="1.0" encoding="UTF-8" standalone="no"?>
<!DOCTYPE svg PUBLIC "-//W3C//DTD SVG 1.1//EN" "http://www.w3.org/Graphics/SVG/1.1/DTD/svg11.dtd">
<svg width="100%" height="100%" viewBox="0 0 50 32" version="1.1" xmlns="http://www.w3.org/2000/svg" xmlns:xlink="http://www.w3.org/1999/xlink" xml:space="preserve" xmlns:serif="http://www.serif.com/" style="fill-rule:evenodd;clip-rule:evenodd;stroke-linejoin:round;stroke-miterlimit:2;">
    <path d="M2.327,0C1.042,0 0,1.042 0,2.327L0,29.074C0,30.358 1.042,31.4 2.327,31.4L47.673,31.4C48.958,31.4 50,30.359 50,29.074L50,2.327C50,1.042 48.958,0 47.673,0L2.326,0L2.327,0ZM16.395,3.78C19.249,3.78 21.871,4.773 23.928,6.431C22.197,7.98 20.906,10.015 20.269,12.322L21.267,12.322C21.855,10.419 22.923,8.725 24.331,7.381C25.739,8.725 26.807,10.419 27.395,12.322L28.409,12.322C27.764,10.027 26.471,8.005 24.741,6.466C26.802,4.786 29.434,3.78 32.3,3.78C38.914,3.78 44.277,9.142 44.277,15.758C44.277,22.373 38.914,27.736 32.3,27.736C29.386,27.736 26.714,26.696 24.638,24.966C26.495,23.35 27.864,21.183 28.491,18.719L27.514,18.719C26.958,20.787 25.839,22.627 24.331,24.066C22.824,22.627 21.706,20.787 21.15,18.719L20.22,18.719C20.85,21.148 22.202,23.284 24.031,24.884C21.959,26.593 19.297,27.62 16.395,27.62C9.781,27.62 4.419,22.284 4.419,15.7C4.419,9.117 9.781,3.78 16.395,3.78ZM31.401,12.2C29.962,12.2 28.563,13.458 28.563,15.82C28.563,17.387 29.319,18.42 30.806,18.42C31.227,18.421 31.897,18.249 31.897,18.249L32.119,16.88C32.119,16.88 31.507,17.189 31.087,17.189C30.203,17.189 29.848,16.509 29.848,15.778C29.848,14.296 30.609,13.48 31.456,13.48C32.091,13.48 32.602,13.839 32.602,13.839L32.805,12.508C32.805,12.508 32.05,12.2 31.401,12.2ZM43.5,12.316L42.248,12.319L41.98,13.966C41.98,13.966 41.509,13.327 40.773,13.327C39.629,13.327 38.677,14.686 38.677,16.249C38.677,17.257 39.184,18.247 40.223,18.247C40.971,18.247 41.386,17.733 41.386,17.733L41.331,18.172L42.547,18.172L43.5,12.316ZM7.653,12.333L6.656,18.203L7.858,18.203L8.617,13.777L8.73,18.203L9.589,18.203L11.192,13.777L10.481,18.203L11.758,18.203L12.742,12.333L10.767,12.333L9.537,15.934L9.473,12.333L7.653,12.333L7.653,12.333ZM20.206,12.714C20.179,12.741 19.48,16.774 19.48,17.266C19.48,17.993 19.887,18.318 20.461,18.313C20.872,18.309 21.19,18.206 21.337,18.163C21.353,18.158 21.383,18.15 21.383,18.15L21.538,17.1C21.453,17.1 21.33,17.136 21.22,17.136C20.792,17.136 20.745,16.908 20.772,16.739L21.117,14.597L21.769,14.597L21.927,13.436L21.313,13.436L21.438,12.714L20.206,12.714ZM34.73,13.305C33.891,13.305 33.248,13.581 33.248,13.581L33.07,14.659C33.07,14.659 33.601,14.439 34.403,14.439C34.859,14.439 35.192,14.491 35.192,14.87C35.192,15.101 35.152,15.186 35.152,15.186C35.152,15.186 34.791,15.155 34.625,15.155C33.567,15.155 32.456,15.618 32.456,17.013C32.456,18.111 33.186,18.363 33.638,18.363C34.5,18.363 34.873,17.789 34.892,17.788L34.852,18.266L35.928,18.266L36.409,14.816C36.41,13.352 35.163,13.305 34.73,13.305ZM14.534,13.311C13.693,13.311 13.047,13.588 13.047,13.588L12.869,14.666C12.869,14.666 13.401,14.445 14.206,14.445C14.663,14.445 14.998,14.498 14.998,14.877C14.998,15.107 14.958,15.192 14.958,15.192C14.958,15.192 14.597,15.161 14.43,15.161C13.368,15.161 12.253,15.624 12.253,17.017C12.253,18.115 12.984,18.367 13.438,18.367C14.304,18.367 14.677,17.794 14.697,17.792L14.656,18.27L15.738,18.27L16.22,14.822C16.22,13.359 14.969,13.311 14.534,13.311L14.534,13.311ZM18.353,13.311C17.449,13.311 16.531,13.676 16.531,14.922C16.531,16.334 18.061,16.191 18.061,16.786C18.061,17.183 17.634,17.216 17.305,17.216C16.735,17.216 16.222,17.019 16.22,17.028L16.056,18.106C16.086,18.115 16.403,18.258 17.428,18.258C17.703,18.258 19.277,18.328 19.277,16.689C19.277,15.157 17.82,15.461 17.82,14.845C17.82,14.539 18.057,14.442 18.491,14.442C18.663,14.442 19.327,14.497 19.327,14.497L19.48,13.408C19.48,13.408 19.051,13.311 18.353,13.311ZM24.003,13.311C22.747,13.311 21.817,14.662 21.817,16.188C21.817,17.949 22.982,18.367 23.975,18.367C24.891,18.367 25.295,18.163 25.295,18.163L25.514,16.961C25.514,16.961 24.817,17.267 24.188,17.267C22.846,17.267 23.081,16.269 23.081,16.269L25.62,16.269C25.62,16.269 25.784,15.462 25.784,15.133C25.784,14.312 25.375,13.311 24.003,13.311ZM28.552,13.363C27.986,13.363 27.566,14.124 27.566,14.124L27.678,13.425L26.503,13.425L25.714,18.247L27.013,18.247C27.38,16.188 27.447,14.516 28.325,14.822C28.479,14.025 28.628,13.717 28.795,13.38C28.795,13.38 28.717,13.363 28.552,13.363L28.552,13.363ZM39.072,13.363C38.506,13.363 38.086,14.124 38.086,14.124L38.198,13.425L37.023,13.425L36.234,18.247L37.531,18.247C37.899,16.188 37.968,14.516 38.845,14.822C38.999,14.025 39.148,13.717 39.316,13.38C39.316,13.38 39.237,13.363 39.072,13.363L39.072,13.363ZM23.997,14.399C24.71,14.399 24.58,15.204 24.58,15.269L23.175,15.269C23.175,15.186 23.308,14.399 23.997,14.399L23.997,14.399ZM40.97,14.492C41.424,14.492 41.658,14.799 41.658,15.52C41.658,16.175 41.328,17.05 40.644,17.05C40.19,17.05 39.977,16.675 39.977,16.087C39.977,15.127 40.416,14.492 40.97,14.492ZM34.731,16.133C34.916,16.133 34.955,16.151 34.986,16.159C34.981,16.159 34.981,16.16 34.998,16.163C35.022,16.377 34.869,17.384 34.128,17.384C33.746,17.384 33.648,17.081 33.648,16.902C33.648,16.552 33.83,16.133 34.731,16.133ZM14.536,16.137C14.746,16.138 14.769,16.161 14.805,16.167C14.828,16.382 14.674,17.388 13.931,17.388C13.548,17.388 13.448,17.085 13.448,16.906C13.448,16.557 13.631,16.137 14.536,16.137Z" style="fill:rgb(250,250,250);fill-rule:nonzero;"/>
</svg>
