<?xml version="1.0" encoding="UTF-8" standalone="no"?>
<!DOCTYPE svg PUBLIC "-//W3C//DTD SVG 1.1//EN" "http://www.w3.org/Graphics/SVG/1.1/DTD/svg11.dtd">
<svg width="100%" height="100%" viewBox="0 0 26 30" version="1.1" xmlns="http://www.w3.org/2000/svg" xmlns:xlink="http://www.w3.org/1999/xlink" xml:space="preserve" xmlns:serif="http://www.serif.com/" style="fill-rule:evenodd;clip-rule:evenodd;stroke-linejoin:round;stroke-miterlimit:2;">
    <path d="M25.136,10.751C25.336,11.682 25.311,12.813 25.07,14.145C24.106,19.073 20.971,21.535 15.666,21.535L14.934,21.535C14.664,21.533 14.402,21.631 14.2,21.81C13.989,21.992 13.849,22.242 13.804,22.516L13.736,22.829L12.821,28.586L12.786,28.836C12.739,29.112 12.594,29.362 12.378,29.54C12.173,29.72 11.91,29.818 11.638,29.815L7.463,29.815C7.359,29.821 7.254,29.801 7.159,29.758C7.064,29.715 6.98,29.649 6.915,29.567C6.85,29.483 6.802,29.386 6.777,29.283C6.751,29.179 6.747,29.071 6.766,28.966C6.867,28.349 7.011,27.414 7.208,26.171C7.402,24.93 7.549,23.997 7.65,23.377C7.751,22.756 7.898,21.824 8.1,20.588C8.3,19.351 8.451,18.421 8.549,17.8C8.603,17.39 8.845,17.186 9.265,17.186L11.443,17.186C12.92,17.208 14.226,17.092 15.373,16.837C17.312,16.404 18.904,15.606 20.148,14.439C21.282,13.385 22.139,12.02 22.73,10.347C22.998,9.569 23.188,8.83 23.312,8.133C23.322,8.065 23.335,8.024 23.354,8.011C23.367,7.992 23.39,7.987 23.411,7.992C23.447,8.008 23.482,8.028 23.514,8.05C24.381,8.709 24.927,9.607 25.136,10.751ZM22.276,6.058C22.276,7.244 22.021,8.553 21.507,9.986C20.618,12.571 18.947,14.319 16.481,15.229C15.227,15.674 13.831,15.904 12.287,15.932C12.287,15.942 11.789,15.943 10.791,15.943L9.297,15.932C8.185,15.932 7.531,16.461 7.332,17.527C7.311,17.615 6.839,20.555 5.918,26.345C5.904,26.454 5.838,26.514 5.717,26.514L0.811,26.514C0.695,26.516 0.581,26.493 0.475,26.446C0.369,26.399 0.276,26.329 0.2,26.241C0.122,26.155 0.065,26.052 0.032,25.94C-0.001,25.828 -0.009,25.711 0.01,25.596L3.869,1.114C3.918,0.8 4.081,0.516 4.326,0.314C4.564,0.109 4.87,-0.003 5.184,0L15.136,0C15.513,0 16.055,0.073 16.756,0.217C17.464,0.356 18.081,0.538 18.614,0.748C19.802,1.201 20.709,1.886 21.336,2.795C21.964,3.708 22.276,4.792 22.276,6.058Z" style="fill:rgb(250,250,250);fill-rule:nonzero;"/>
</svg>
