<?xml version="1.0" encoding="UTF-8" standalone="no"?>
<!DOCTYPE svg PUBLIC "-//W3C//DTD SVG 1.1//EN" "http://www.w3.org/Graphics/SVG/1.1/DTD/svg11.dtd">
<svg width="100%" height="100%" viewBox="0 0 43 31" version="1.1" xmlns="http://www.w3.org/2000/svg" xmlns:xlink="http://www.w3.org/1999/xlink" xml:space="preserve" xmlns:serif="http://www.serif.com/" style="fill-rule:evenodd;clip-rule:evenodd;stroke-linejoin:round;stroke-miterlimit:2;">
    <path d="M4.607,0C2.081,0 0,2.098 0,4.644L0,26.316C0,28.863 2.081,30.96 4.607,30.96L38.393,30.96C40.919,30.96 43,28.863 43,26.316L43,4.644C43,2.098 40.919,0 38.393,0L4.607,0ZM4.607,3.096L38.393,3.096C39.261,3.096 39.929,3.769 39.929,4.644L39.929,7.74L4.607,7.74L4.607,10.836L39.929,10.836L39.929,26.316C39.929,27.191 39.261,27.864 38.393,27.864L4.607,27.864C3.739,27.864 3.071,27.191 3.071,26.316L3.071,4.644C3.071,3.769 3.739,3.096 4.607,3.096Z" style="fill:rgb(250,250,250);fill-rule:nonzero;"/>
</svg>
