<?xml version="1.0" encoding="UTF-8" standalone="no"?>
<!DOCTYPE svg PUBLIC "-//W3C//DTD SVG 1.1//EN" "http://www.w3.org/Graphics/SVG/1.1/DTD/svg11.dtd">
<svg width="100%" height="100%" viewBox="0 0 30 30" version="1.1" xmlns="http://www.w3.org/2000/svg" xmlns:xlink="http://www.w3.org/1999/xlink" xml:space="preserve" xmlns:serif="http://www.serif.com/" style="fill-rule:evenodd;clip-rule:evenodd;stroke-linejoin:round;stroke-miterlimit:2;">
    <rect x="3.75" y="15" width="11.25" height="1.875" style="fill:rgb(250,250,250);fill-rule:nonzero;"/>
    <rect x="1.875" y="10.313" width="9.375" height="1.875" style="fill:rgb(250,250,250);fill-rule:nonzero;"/>
    <path d="M28.049,15.568L25.237,9.006C25.164,8.837 25.044,8.693 24.891,8.592C24.738,8.491 24.558,8.437 24.375,8.438L21.563,8.438L21.563,6.563C21.563,6.314 21.464,6.075 21.288,5.9C21.112,5.724 20.874,5.625 20.625,5.625L5.625,5.625L5.625,7.5L19.688,7.5L19.688,19.271C19.26,19.519 18.887,19.85 18.588,20.243C18.289,20.636 18.07,21.084 17.946,21.563L12.054,21.563C11.826,20.679 11.284,19.909 10.528,19.396C9.773,18.884 8.856,18.665 7.951,18.78C7.045,18.895 6.213,19.336 5.61,20.021C5.006,20.706 4.673,21.587 4.673,22.5C4.673,23.413 5.006,24.294 5.61,24.979C6.213,25.664 7.045,26.105 7.951,26.22C8.856,26.335 9.773,26.116 10.528,25.604C11.284,25.091 11.826,24.321 12.054,23.438L17.946,23.438C18.15,24.242 18.616,24.956 19.271,25.465C19.926,25.975 20.733,26.252 21.563,26.252C22.392,26.252 23.199,25.975 23.854,25.465C24.509,24.956 24.975,24.242 25.179,23.438L27.188,23.438C27.436,23.438 27.675,23.339 27.85,23.163C28.026,22.987 28.125,22.749 28.125,22.5L28.125,15.938C28.125,15.81 28.099,15.685 28.049,15.568ZM8.438,24.375C8.067,24.375 7.704,24.265 7.396,24.059C7.087,23.853 6.847,23.56 6.705,23.218C6.563,22.875 6.526,22.498 6.599,22.134C6.671,21.77 6.849,21.436 7.112,21.174C7.374,20.912 7.708,20.733 8.072,20.661C8.435,20.589 8.812,20.626 9.155,20.768C9.498,20.91 9.79,21.15 9.997,21.458C10.203,21.767 10.313,22.129 10.313,22.5C10.312,22.997 10.114,23.474 9.763,23.825C9.411,24.177 8.935,24.375 8.438,24.375ZM21.563,10.313L23.756,10.313L25.766,15L21.563,15L21.563,10.313ZM21.563,24.375C21.192,24.375 20.829,24.265 20.521,24.059C20.212,23.853 19.972,23.56 19.83,23.218C19.688,22.875 19.651,22.498 19.724,22.134C19.796,21.77 19.975,21.436 20.237,21.174C20.499,20.912 20.833,20.733 21.197,20.661C21.56,20.589 21.937,20.626 22.28,20.768C22.623,20.91 22.916,21.15 23.122,21.458C23.328,21.767 23.438,22.129 23.438,22.5C23.437,22.997 23.239,23.474 22.888,23.825C22.536,24.177 22.06,24.375 21.563,24.375ZM26.25,21.563L25.179,21.563C24.973,20.76 24.506,20.048 23.851,19.539C23.197,19.03 22.392,18.752 21.563,18.75L21.563,16.875L26.25,16.875L26.25,21.563Z" style="fill:rgb(250,250,250);fill-rule:nonzero;"/>
</svg>
