<?xml version="1.0" encoding="UTF-8" standalone="no"?>
<!DOCTYPE svg PUBLIC "-//W3C//DTD SVG 1.1//EN" "http://www.w3.org/Graphics/SVG/1.1/DTD/svg11.dtd">
<svg width="100%" height="100%" viewBox="0 0 54 9" version="1.1" xmlns="http://www.w3.org/2000/svg" xmlns:xlink="http://www.w3.org/1999/xlink" xml:space="preserve" xmlns:serif="http://www.serif.com/" style="fill-rule:evenodd;clip-rule:evenodd;stroke-linejoin:round;stroke-miterlimit:2;">
    <path d="M20.081,8.357L25.034,8.357L26.916,5.568L21.963,5.568L20.081,8.357ZM0,6.667L0,7.258L6.902,7.258L7.298,6.667L0,6.667ZM14.588,5.568C13.854,5.568 14.082,5.236 14.2,5.06C14.437,4.709 14.842,4.1 15.078,3.758C15.314,3.417 15.314,3.214 14.842,3.214L10.538,3.214L7.071,8.366L15.517,8.366C18.309,8.366 19.862,6.289 20.343,5.568L14.588,5.568ZM41.378,4.931L44.693,0L39.445,0L36.129,4.931L41.378,4.931ZM8.041,5.568L0,5.568L0,6.159L7.644,6.159L8.041,5.568ZM17.407,3.112C17.17,3.463 16.774,4.072 16.538,4.423C16.419,4.608 16.192,4.931 16.926,4.931L20.773,4.931C20.773,4.931 21.389,4.008 21.912,3.232C22.621,2.179 21.971,0 19.448,0L9.501,0L7.779,2.567L17.179,2.567C17.651,2.567 17.643,2.77 17.407,3.112ZM0,8.357L6.168,8.357L6.564,7.766L0,7.766L0,8.357ZM27.253,8.357L32.206,8.357L34.088,5.568L29.135,5.568C29.126,5.568 27.253,8.357 27.253,8.357ZM45.984,8.366L54,8.366L54,7.775L46.381,7.775L45.984,8.366ZM47.866,5.568L47.469,6.159L54,6.159L54,5.568L47.866,5.568ZM46.727,7.258L54,7.258L54,6.667L47.123,6.667L46.727,7.258ZM32.873,0L30.974,2.826L28.763,2.826L30.662,0L25.709,0L22.393,4.931L34.509,4.931L37.825,0L32.873,0ZM35.699,5.568C35.699,5.568 35.336,6.113 35.159,6.372C34.535,7.295 35.083,8.366 37.117,8.366L45.073,8.366L46.955,5.568L35.699,5.568Z" style="fill:rgb(250,250,250);fill-rule:nonzero;"/>
</svg>
