<svg width="65" height="65" viewBox="0 0 65 65" fill="none" xmlns="http://www.w3.org/2000/svg">
<path d="M53.3913 22.6482C52.8375 21.1802 51.7861 19.9054 50.3852 19.0033C48.9843 18.1012 47.3043 17.6172 45.5818 17.6195H38.9669V0L36.1869 0.357436C29.8807 1.16821 24.9685 4.04442 21.5882 8.90632C19.1511 12.4109 18.0181 16.277 17.4924 19.1685C13.8624 21.6822 10.7045 25.1433 8.09477 29.471C5.89538 33.1177 4.07471 37.3919 2.68314 42.175C0.331834 50.2567 0.0135475 56.9604 0.00121794 57.2418L0 65H4.87019V57.3778C4.93108 56.2501 6.46482 31.5736 21.1623 22.1772L22.0239 21.6263L22.1654 20.6836C22.8984 15.8028 25.4313 7.7414 34.0959 5.26345V22.0035H45.5818C46.286 22.0016 46.9732 22.1985 47.5466 22.5665C48.1201 22.9345 48.5508 23.4551 48.7784 24.055C50.7202 29.2139 54.0568 35.6695 59.2568 38.7033L57.693 43.9817C57.1486 45.8641 55.9104 47.5244 54.181 48.6909C52.4516 49.8575 50.3335 50.461 48.1733 50.4029C43.8095 50.2851 39.2677 50.7975 34.6733 51.9251L32.8782 52.3656V65H37.7491V55.748C41.1151 55.0323 44.5693 54.7086 48.0269 54.7849C51.283 54.8657 54.4741 53.9543 57.0827 52.1984C59.6913 50.4426 61.5646 47.9452 62.3989 45.1112L65 36.3321L63.0629 35.5849C59.4401 34.1874 56.0055 29.5931 53.3913 22.6482Z" fill="#505160"/>
</svg>
