<svg width="54" height="57" viewBox="0 0 54 57" fill="none" xmlns="http://www.w3.org/2000/svg">
<path d="M27 25.7816C23.6848 25.7816 20.5054 24.548 18.1612 22.3523C15.817 20.1565 14.5 17.1785 14.5 14.0732C14.5 10.968 15.817 7.98995 18.1612 5.79422C20.5054 3.59848 23.6848 2.36493 27 2.36493C30.3152 2.36493 33.4946 3.59848 35.8388 5.79422C38.183 7.98995 39.5 10.968 39.5 14.0732C39.5 17.1785 38.183 20.1565 35.8388 22.3523C33.4946 24.548 30.3152 25.7816 27 25.7816Z" stroke="#505160" stroke-width="3" stroke-linecap="round"/>
<path d="M2 55.0524V52.1253C2 47.4674 3.97544 43.0003 7.49175 39.7067C11.0081 36.4131 15.7772 34.5628 20.75 34.5628H33.25C38.2228 34.5628 42.9919 36.4131 46.5083 39.7067C50.0246 43.0003 52 47.4674 52 52.1253V55.0524" stroke="#505160" stroke-width="3" stroke-linecap="round"/>
</svg>
