<svg width="140" height="140" viewBox="0 0 140 140" fill="none" xmlns="http://www.w3.org/2000/svg">
<path d="M104.679 83.2825C102.585 75.6923 98.0588 68.9986 91.7945 64.2284C85.5302 59.4581 77.8739 56.8749 70.0001 56.8749C62.1263 56.8749 54.47 59.4581 48.2057 64.2284C41.9415 68.9986 37.4152 75.6923 35.3214 83.2825L30.3317 101.37C29.4358 104.618 29.3022 108.029 29.9411 111.337C30.5801 114.644 31.9745 117.76 34.0155 120.44C36.0565 123.12 38.6891 125.293 41.7078 126.789C44.7266 128.284 48.05 129.063 51.4189 129.063H88.5813C91.9502 129.063 95.2736 128.284 98.2924 126.789C101.311 125.293 103.944 123.12 105.985 120.44C108.026 117.76 109.42 114.644 110.059 111.337C110.698 108.029 110.564 104.618 109.669 101.37L104.679 83.2825ZM99.0236 115.138C97.8043 116.752 96.2259 118.06 94.4134 118.958C92.6009 119.856 90.6041 120.32 88.5813 120.313H51.4189C49.3975 120.313 47.4034 119.846 45.5922 118.948C43.7809 118.051 42.2013 116.747 40.9767 115.139C39.752 113.531 38.9154 111.662 38.532 109.677C38.1487 107.692 38.2289 105.646 38.7664 103.697L43.7561 85.6095C45.3407 79.8654 48.7661 74.7998 53.5067 71.1898C58.2474 67.5799 64.0415 65.6249 70.0001 65.6249C75.9588 65.6249 81.7529 67.5799 86.4935 71.1898C91.2342 74.7998 94.6595 79.8654 96.2441 85.6095L101.234 103.697C101.779 105.645 101.863 107.693 101.48 109.679C101.096 111.665 100.255 113.534 99.0236 115.139V115.138Z" fill="#505160"/>
<path d="M39.9493 62.9754C40.7105 58.2176 39.701 53.1243 37.1055 48.63C34.51 44.1358 30.6032 40.7148 26.1032 38.9952C21.2841 37.1547 16.3688 37.4478 12.258 39.8202C4.08575 44.5386 1.93516 56.1676 7.46489 65.7434C10.0595 70.2376 13.9667 73.6594 18.4666 75.3782C20.46 76.1551 22.5789 76.5602 24.7182 76.5734C27.3836 76.5831 30.0038 75.8859 32.3119 74.553C36.4203 72.1804 39.1328 68.0687 39.9493 62.9754ZM31.3086 61.5923C30.9176 64.0339 29.72 65.9455 27.9363 66.9752C26.1527 68.005 23.8985 68.0859 21.5879 67.2041C18.9594 66.2003 16.6346 64.1277 15.0416 61.3684C11.9791 56.0637 12.707 49.6653 16.633 47.3979C17.6199 46.8379 18.7377 46.5493 19.8724 46.5618C20.9368 46.5728 21.9903 46.7782 22.9808 47.168C25.6094 48.1723 27.9341 50.2447 29.5272 53.0039C31.1202 55.7632 31.7527 58.8139 31.3086 61.5923Z" fill="#505160"/>
<path d="M40.8971 44.8484C44.0038 47.3321 47.5517 48.6254 51.1395 48.6251C52.2141 48.6248 53.2857 48.5092 54.3357 48.2803C63.5568 46.2758 69.1478 35.8545 66.799 25.0496C65.697 19.9785 63.0179 15.5294 59.2554 12.5213C55.2263 9.30018 50.4537 8.08093 45.8167 9.08936C36.5959 11.0937 31.0049 21.5149 33.3535 32.3198C34.4557 37.3912 37.1348 41.8403 40.8971 44.8484ZM47.675 17.6398C48.1002 17.5481 48.534 17.5022 48.9689 17.503C50.5953 17.503 52.2682 18.1393 53.7915 19.3572C55.9892 21.1141 57.5721 23.7962 58.2486 26.9098C59.5501 32.8967 56.9071 38.7683 52.4771 39.7313C50.4644 40.1688 48.2922 39.5596 46.3612 38.0155C44.1635 36.2584 42.5806 33.5762 41.9041 30.4629C40.6023 24.4743 43.2453 18.6028 47.675 17.6398Z" fill="#505160"/>
<path d="M127.742 39.8202C123.633 37.4478 118.715 37.1547 113.897 38.9952C109.397 40.7143 105.49 44.1358 102.895 48.63C100.301 53.1243 99.2907 58.2187 100.051 62.9754C100.867 68.0687 103.579 72.1804 107.689 74.553C109.997 75.886 112.617 76.5832 115.282 76.5734C117.422 76.5602 119.541 76.1551 121.534 75.3782C126.034 73.6594 129.941 70.2376 132.536 65.7434C138.065 56.1676 135.914 44.5386 127.742 39.8202ZM124.959 61.3684C123.366 64.1276 121.041 66.2003 118.412 67.2041C116.103 68.0868 113.848 68.0055 112.064 66.9752C110.281 65.9449 109.084 64.0339 108.692 61.5923C108.247 58.8139 108.88 55.7643 110.473 53.0064C112.066 50.2485 114.391 48.1748 117.019 47.1704C118.01 46.7803 119.063 46.5745 120.128 46.5631C121.262 46.5507 122.38 46.8392 123.367 47.3993C127.293 49.6647 128.022 56.0623 124.959 61.3684Z" fill="#505160"/>
<path d="M85.6645 48.2803C86.7145 48.5091 87.786 48.6247 88.8607 48.6251C92.4482 48.6251 95.9974 47.332 99.1031 44.8484C102.865 41.8405 105.544 37.3912 106.647 32.32C108.995 21.5151 103.404 11.0939 94.1834 9.08957C89.5468 8.08168 84.7739 9.30012 80.7448 12.5215C76.9823 15.5293 74.3032 19.9787 73.2012 25.0496C70.8524 35.8545 76.4434 46.2757 85.6645 48.2803ZM81.7516 26.9084C82.4281 23.7948 84.011 21.1115 86.2086 19.3558C87.7322 18.1379 89.4049 17.5016 91.0313 17.5016C91.4662 17.5008 91.9 17.5466 92.3252 17.6383C96.7548 18.6014 99.3979 24.4743 98.0966 30.4598C97.4196 33.5734 95.8366 36.2567 93.6396 38.0127C91.7088 39.5565 89.538 40.1657 87.5236 39.7285C83.0931 38.7668 80.45 32.8945 81.7516 26.9084Z" fill="#505160"/>
</svg>
