<svg width="38" height="38" viewBox="0 0 38 38" fill="none" xmlns="http://www.w3.org/2000/svg">
<path d="M0 19C0 27.1114 5.08408 34.0369 12.2392 36.7618C12.065 35.2783 11.8798 32.832 12.2788 31.1157C12.6223 29.64 14.497 21.7138 14.497 21.7138C14.497 21.7138 13.9318 20.5817 13.9318 18.905C13.9318 16.2767 15.4549 14.3133 17.3533 14.3133C18.9683 14.3133 19.7473 15.5246 19.7473 16.9765C19.7473 18.5994 18.7134 21.0251 18.1798 23.275C17.7349 25.1576 19.1251 26.6934 20.9808 26.6934C24.3422 26.6934 26.9278 23.1483 26.9278 18.031C26.9278 13.5011 23.6724 10.336 19.0253 10.336C13.6452 10.336 10.4864 14.3719 10.4864 18.544C10.4864 20.1701 11.1118 21.9118 11.894 22.8602C11.9607 22.9318 12.0078 23.0194 12.0308 23.1145C12.0538 23.2096 12.052 23.3091 12.0254 23.4033C11.8813 24.0018 11.5615 25.2858 11.4998 25.5487C11.4158 25.8938 11.2258 25.9683 10.8664 25.8004C8.50408 24.7016 7.02842 21.2483 7.02842 18.4743C7.02842 12.5068 11.362 7.02842 19.5241 7.02842C26.0854 7.02842 31.1853 11.704 31.1853 17.9518C31.1853 24.4704 27.0766 29.7176 21.3703 29.7176C19.4528 29.7176 17.6526 28.7201 17.0351 27.5437C17.0351 27.5437 16.0867 31.1568 15.8571 32.0403C15.4106 33.7567 14.1724 35.929 13.4045 37.1624C15.1747 37.7071 17.0525 38 19 38C29.4928 38 38 29.4928 38 19C38 8.50725 29.4928 0 19 0C8.50725 0 0 8.50725 0 19Z" fill="#FAFAFA"/>
</svg>
