<?xml version="1.0" encoding="UTF-8" standalone="no"?>
<!DOCTYPE svg PUBLIC "-//W3C//DTD SVG 1.1//EN" "http://www.w3.org/Graphics/SVG/1.1/DTD/svg11.dtd">
<svg width="100%" height="100%" viewBox="0 0 24 29" version="1.1" xmlns="http://www.w3.org/2000/svg" xmlns:xlink="http://www.w3.org/1999/xlink" xml:space="preserve" xmlns:serif="http://www.serif.com/" style="fill-rule:evenodd;clip-rule:evenodd;stroke-linejoin:round;stroke-miterlimit:2;">
    <path d="M6.271,17.067C5.942,17.295 4.21,17.895 4.21,15.866L4.21,9.292L2.143,9.292L2.143,15.778C2.143,20.513 7.213,19.008 8.331,18.243L8.331,9.292L6.271,9.292L6.271,17.067ZM0,2.644L0,16.607C0,23.162 4.735,25.154 11.865,28.245C18.97,25.154 23.73,23.175 23.73,16.607L23.73,2.644C16.378,-1.25 5.917,-0.492 0,2.644ZM22.636,16.607C22.636,22.081 19.273,23.788 11.865,27.056C4.438,23.782 1.087,22.081 1.087,16.607L1.087,8.617C7.554,2.688 15.727,2.296 22.636,2.941L22.636,16.607ZM9.387,9.818L9.387,23.27L11.454,23.27L11.454,18.927C12.996,19.389 15.987,18.763 15.987,13.965C15.987,7.808 10.885,8.85 9.387,9.818ZM11.454,17.233L11.454,10.893C11.985,10.627 13.882,10.09 13.882,14.009C13.882,18.301 11.581,17.284 11.454,17.233ZM16.454,11.772C16.461,14.762 19.716,14.458 19.754,16.222C19.792,17.707 17.832,17.676 16.543,16.531L16.543,18.434C18.831,19.793 21.72,18.946 21.802,16.317C21.91,13.061 18.382,13.371 18.427,11.689C18.464,10.406 20.361,10.394 21.492,11.55L21.492,9.755C19.691,8.364 16.442,9.173 16.454,11.772Z" style="fill:rgb(250,250,250);fill-rule:nonzero;"/>
</svg>
