<?xml version="1.0" encoding="UTF-8" standalone="no"?>
<!DOCTYPE svg PUBLIC "-//W3C//DTD SVG 1.1//EN" "http://www.w3.org/Graphics/SVG/1.1/DTD/svg11.dtd">
<svg width="100%" height="100%" viewBox="0 0 52 32" version="1.1" xmlns="http://www.w3.org/2000/svg" xmlns:xlink="http://www.w3.org/1999/xlink" xml:space="preserve" xmlns:serif="http://www.serif.com/" style="fill-rule:evenodd;clip-rule:evenodd;stroke-linejoin:round;stroke-miterlimit:2;">
    <path d="M5.571,0C2.516,0 0,2.131 0,4.719L0,26.738C0,29.326 2.516,31.457 5.571,31.457L46.429,31.457C49.484,31.457 52,29.326 52,26.738L52,4.719C52,2.131 49.484,0 46.429,0L5.571,0ZM5.571,3.146L46.429,3.146C47.478,3.146 48.286,3.83 48.286,4.719L48.286,26.738C48.286,27.627 47.478,28.311 46.429,28.311L5.571,28.311C4.522,28.311 3.714,27.627 3.714,26.738L3.714,4.719C3.714,3.83 4.522,3.146 5.571,3.146ZM32.325,10.027C28.749,10.027 26.871,11.521 26.871,13.418C26.871,16.851 31.625,16.375 31.625,18.136C31.625,18.44 31.328,19.123 29.36,19.123C27.391,19.123 26.11,18.533 26.11,18.533L25.534,20.798C25.534,20.798 26.75,21.435 29.192,21.435C31.625,21.435 35.05,19.849 35.05,17.55C35.05,14.788 30.29,14.605 30.29,13.374C30.29,12.745 30.921,12.241 32.611,12.241C33.715,12.241 34.933,12.981 34.933,12.981L35.516,10.574C35.516,10.574 33.9,10.032 32.322,10.032L32.325,10.027ZM17.063,10.224L13.929,17.99C13.929,17.99 13.773,17.317 13.696,16.908C11.923,13.542 9.054,12.287 9.054,12.287L11.784,21.086L15.498,21.086L20.716,10.224L17.063,10.224ZM22.054,10.224L20.022,21.086L23.45,21.086L25.48,10.224L22.054,10.224ZM40.51,10.224L34.938,21.086L38.304,21.086L39,19.563L43.296,19.563L43.643,21.086L46.718,21.086L44.107,10.224L40.508,10.224L40.51,10.224ZM5.28,10.271C5.28,10.271 11.96,12.009 13.522,16.269L12.365,11.354C12.365,11.354 11.854,10.269 10.508,10.269L5.282,10.269L5.28,10.271ZM41.786,13.369L42.77,17.449L39.984,17.449L41.786,13.369Z" style="fill:rgb(250,250,250);fill-rule:nonzero;"/>
</svg>
