<?xml version="1.0" encoding="UTF-8" standalone="no"?>
<!DOCTYPE svg PUBLIC "-//W3C//DTD SVG 1.1//EN" "http://www.w3.org/Graphics/SVG/1.1/DTD/svg11.dtd">
<svg width="100%" height="100%" viewBox="0 0 512 512" version="1.1" xmlns="http://www.w3.org/2000/svg" xmlns:xlink="http://www.w3.org/1999/xlink" xml:space="preserve" xmlns:serif="http://www.serif.com/" style="fill-rule:evenodd;clip-rule:evenodd;stroke-linejoin:round;stroke-miterlimit:2;">
    <g>
        <g>
            <path d="M429.049,195.993C423.528,195.993 419.048,200.473 419.048,205.994C419.048,211.515 423.529,215.995 429.049,215.995C434.569,215.995 439.05,211.515 439.05,205.994C439.051,200.473 434.57,195.993 429.049,195.993Z" style="fill:rgb(80,81,96);fill-rule:nonzero;"/>
        </g>
    </g>
    <g>
        <g>
            <path d="M299.034,276.002C293.513,276.002 289.033,280.483 289.033,286.003C289.033,291.523 293.514,296.004 299.034,296.004C304.554,296.004 309.035,291.524 309.035,286.003C309.035,280.482 304.555,276.002 299.034,276.002Z" style="fill:rgb(80,81,96);fill-rule:nonzero;"/>
        </g>
    </g>
    <g>
        <g>
            <path d="M236.027,115.983C230.506,115.983 226.026,120.463 226.026,125.984C226.026,131.505 230.507,135.985 236.027,135.985C241.547,135.985 246.028,131.505 246.028,125.984C246.028,120.464 241.548,115.983 236.027,115.983Z" style="fill:rgb(80,81,96);fill-rule:nonzero;"/>
        </g>
    </g>
    <g>
        <g>
            <path d="M487.93,178.115C472.003,161.537 449.161,146.971 419.918,134.707C425.76,126.366 429.048,116.332 429.048,105.983C429.048,78.41 406.615,55.977 379.042,55.977C363.228,55.977 348.416,63.509 339.033,75.982C325.109,75.976 312.022,81.652 302.61,91.704C271.683,78.197 232,72.883 196.917,77.817C153.198,83.976 113.026,106.733 83.8,141.897C55.318,176.168 39.826,219.011 40.022,262.735C15.811,274.209 0,298.761 0,326.008C0,364.61 31.406,396.016 70.008,396.016L226.026,396.016C237.055,396.016 246.028,404.989 246.028,416.018C246.028,427.047 237.055,436.02 226.026,436.02L133.015,436.02C127.492,436.02 123.014,440.497 123.014,446.021C123.014,451.545 127.493,456.022 133.015,456.022L226.026,456.022C248.085,456.022 266.031,438.076 266.031,416.017C266.031,393.958 248.085,376.012 226.026,376.012L70.008,376.012C42.435,376.012 20.002,353.579 20.002,326.006C20.002,308.665 28.963,292.851 43.146,283.812C53.133,315.155 85.306,336.007 112.683,336.007L225.982,336.007C225.993,336.007 226.004,336.008 226.015,336.008C226.026,336.008 226.038,336.007 226.05,336.007L419.048,336.007C424.571,336.007 429.049,331.53 429.049,326.006C429.049,303.887 414.614,285.076 394.67,278.501C399.26,273.822 405.68,270.98 412.577,270.98C414.391,270.98 416.191,271.17 417.932,271.546C449.471,278.339 470.419,275.265 482.437,271.492C499.892,266.017 511.489,250.039 511.981,230.786C512.296,218.507 508.379,199.4 487.93,178.115ZM379.044,75.978C395.588,75.979 409.047,89.439 409.047,105.983C409.047,114.056 405.893,121.564 400.287,127.163C396.596,125.865 392.823,124.593 388.974,123.361C388.837,120.704 388.495,118.043 387.947,115.395C384.898,100.674 374.994,88.161 361.856,81.418C366.824,77.946 372.801,75.978 379.044,75.978ZM491.99,230.276C491.716,241.007 485.762,249.488 476.451,252.409C468.561,254.887 451.148,258.119 422.875,252.145L382.637,236.664C377.48,234.68 371.695,237.251 369.712,242.407C367.729,247.563 370.3,253.349 375.455,255.332L386.272,259.494C380.374,263.734 375.511,269.375 372.243,276.002L339.039,276.002C333.516,276.002 329.038,280.479 329.038,286.003C329.038,291.527 333.517,296.004 339.039,296.004L379.044,296.004C392.083,296.004 403.206,304.364 407.333,316.006L234.074,316.006C229.702,300.183 220.121,285.819 206.544,274.972C191.229,262.739 172.22,256 153.018,256L130.515,256C124.992,256 120.514,260.477 120.514,266.001C120.514,271.525 124.993,276.002 130.515,276.002L153.018,276.002C179.59,276.002 203.959,292.864 213.012,316.007L112.683,316.007C90.527,316.007 63.863,296.285 60.417,269.64C60.45,268.74 60.366,267.821 60.142,266.903C60.139,266.889 60.133,266.876 60.13,266.862C60.082,266.142 60.046,265.42 60.037,264.694C58.648,182.239 119.999,108.854 199.706,97.626C207.55,96.523 215.637,95.986 223.792,95.986C247.501,95.986 271.752,100.53 292.022,108.929C290.052,114.358 289.035,120.117 289.035,125.986C289.035,153.559 311.468,175.992 339.041,175.992C344.564,175.992 349.042,171.514 349.042,165.991C349.042,160.468 344.563,155.99 339.041,155.99C322.497,155.99 309.038,142.53 309.038,125.987C309.038,120.178 310.695,114.555 313.838,109.707C313.883,109.64 313.928,109.571 313.972,109.502C320.315,99.864 331.409,94.778 342.91,96.219C343.764,96.33 344.539,96.456 345.279,96.602C356.546,98.834 366.039,108.231 368.363,119.452C369.061,122.826 369.222,126.215 368.842,129.523C368.288,134.332 371.258,138.847 375.894,140.243C384.014,142.688 391.881,145.318 399.274,148.055C468.527,173.736 492.577,207.367 491.99,230.276Z" style="fill:rgb(80,81,96);fill-rule:nonzero;"/>
        </g>
    </g>
    <g>
        <g>
            <path d="M202.903,127.102C201.654,121.722 196.277,118.373 190.899,119.623C162.098,126.315 136.54,142.389 116.988,166.108C113.475,170.37 114.082,176.674 118.344,180.188C120.206,181.724 122.459,182.472 124.699,182.472C127.583,182.472 130.445,181.231 132.423,178.832C149.156,158.533 170.942,144.795 195.425,139.107C200.805,137.857 204.154,132.482 202.903,127.102Z" style="fill:rgb(80,81,96);fill-rule:nonzero;"/>
        </g>
    </g>
</svg>
