<?xml version="1.0" encoding="UTF-8" standalone="no"?>
<!DOCTYPE svg PUBLIC "-//W3C//DTD SVG 1.1//EN" "http://www.w3.org/Graphics/SVG/1.1/DTD/svg11.dtd">
<svg width="100%" height="100%" viewBox="0 0 512 512" version="1.1" xmlns="http://www.w3.org/2000/svg" xmlns:xlink="http://www.w3.org/1999/xlink" xml:space="preserve" xmlns:serif="http://www.serif.com/" style="fill-rule:evenodd;clip-rule:evenodd;stroke-linejoin:round;stroke-miterlimit:2;">
    <g>
        <g>
            <g>
                <path d="M510.646,261.469C468.003,185.134 397.9,138.456 315.733,129.806C274.538,77.776 145.277,64.595 139.698,64.052C136.063,63.677 132.406,65.26 130.177,68.219C127.937,71.157 127.385,75.052 128.719,78.5C141.392,111.396 154.375,148.813 157.811,164.121C134.338,174.862 113.821,186.284 100.594,195.802C71.906,149.906 13.344,149.333 10.667,149.333C4.771,149.333 0,154.104 0,160C0,221.802 21.542,252.823 35.948,266.667C21.542,280.51 0,311.531 0,373.333C0,379.229 4.771,384 10.667,384C13.344,384 71.907,383.427 100.594,337.531C118.167,350.177 148.551,366.168 181.753,379.462C174.416,391.329 170.667,410.204 170.667,437.333C170.667,443.229 175.438,448 181.334,448C184.506,448 257.042,447.371 293.166,404.997C385.036,403.222 464.144,355.106 510.646,271.864C512.448,268.635 512.448,264.698 510.646,261.469ZM154.906,87.417C190.747,92.605 249.588,105.369 282.84,128.216C252.18,129.414 213.06,141.006 177.597,155.552C172.875,136.802 162.398,107.509 154.906,87.417ZM192.25,426.052C193.671,396.381 200.517,388.798 202.436,387.246C223.222,394.542 244.282,400.34 263.405,403.25C240.266,419.531 208.723,424.598 192.25,426.052ZM201.198,386.854L201.202,386.825C201.231,386.835 201.261,386.843 201.289,386.854C201.229,386.846 201.262,386.863 201.198,386.854ZM288,384C225.667,384 123.75,332.823 104.875,313.51C102.854,311.437 100.094,310.302 97.25,310.302C96.604,310.302 95.948,310.365 95.302,310.479C91.812,311.125 88.864,313.479 87.458,316.739C73.062,350.124 39.208,359.239 21.614,361.729C24.947,294.885 56.583,277.021 58.208,276.156C61.718,274.354 63.885,270.718 63.937,266.771C63.989,262.781 61.749,259.063 58.218,257.188C56.791,256.428 24.968,238.688 21.614,171.667C39.197,174.24 73.176,183.49 87.458,216.594C88.864,219.854 91.812,222.209 95.302,222.854C98.823,223.51 102.396,222.364 104.875,219.823C123.75,200.51 225.667,149.333 288,149.333C372.219,149.333 445.167,192.01 489.042,266.666C445.167,341.323 372.219,384 288,384Z" style="fill:rgb(80,81,96);fill-rule:nonzero;"/>
                <path d="M320,266.666C320,217.583 339.365,187.52 339.563,187.218C342.792,182.301 341.438,175.697 336.542,172.447C331.646,169.218 325.042,170.541 321.792,175.416C320.844,176.833 298.667,210.749 298.667,266.666C298.667,322.583 320.844,356.499 321.792,357.916C323.844,360.999 327.23,362.666 330.677,362.666C332.708,362.666 334.76,362.083 336.583,360.874C341.489,357.603 342.812,350.989 339.541,346.082C339.344,345.792 320,316.198 320,266.666Z" style="fill:rgb(80,81,96);fill-rule:nonzero;"/>
                <path d="M293.875,172.448C288.969,169.219 282.385,170.542 279.125,175.417C278.177,176.833 256,210.75 256,266.666C256,296.531 262.437,319.999 267.844,334.426C269.448,338.707 273.511,341.353 277.834,341.353C279.074,341.353 280.344,341.134 281.574,340.676C287.095,338.613 289.887,332.468 287.824,326.947C283.043,314.166 277.334,293.332 277.334,266.666C277.334,217.583 296.699,187.52 296.897,187.218C300.125,182.302 298.771,175.698 293.875,172.448Z" style="fill:rgb(80,81,96);fill-rule:nonzero;"/>
                <circle cx="383.999" cy="234.665" r="21.333" style="fill:rgb(80,81,96);"/>
            </g>
        </g>
    </g>
</svg>
