<?xml version="1.0" encoding="UTF-8" standalone="no"?>
<!DOCTYPE svg PUBLIC "-//W3C//DTD SVG 1.1//EN" "http://www.w3.org/Graphics/SVG/1.1/DTD/svg11.dtd">
<svg width="100%" height="100%" viewBox="0 0 512 512" version="1.1" xmlns="http://www.w3.org/2000/svg" xmlns:xlink="http://www.w3.org/1999/xlink" xml:space="preserve" xmlns:serif="http://www.serif.com/" style="fill-rule:evenodd;clip-rule:evenodd;stroke-linejoin:round;stroke-miterlimit:2;">
    <g>
        <path d="M391.38,145.094C387.237,145.094 383.88,148.452 383.88,152.594L383.88,173.651C383.88,177.793 387.237,181.151 391.38,181.151C395.523,181.151 398.88,177.793 398.88,173.651L398.88,152.594C398.88,148.452 395.522,145.094 391.38,145.094Z" style="fill:rgb(80,81,96);fill-rule:nonzero;"/>
        <path d="M458.889,156.92L458.66,156.92C447.566,156.92 437.396,150.412 432.751,140.339L421.961,116.939C416.178,104.401 403.523,96.3 389.72,96.3L349.691,96.3C313.877,96.3 284.74,125.437 284.74,161.252L284.74,190.371C284.74,198.103 286.843,205.35 290.494,211.585L287.437,218.057C280.115,213.137 270.693,212.659 262.958,216.606L117.28,70.93L117.28,40.769C117.28,18.289 98.992,0 76.513,0C54.034,0 35.744,18.289 35.744,40.769C35.744,63.248 54.033,81.537 76.513,81.537L106.674,81.537L252.384,227.247C250.428,231.146 249.605,235.461 249.888,239.721L152.45,239.721C129.559,239.721 109.165,250.569 96.1,267.381L96.1,233.256C96.1,186.725 58.245,148.869 11.713,148.869C7.57,148.869 4.213,152.227 4.213,156.369L4.213,240.649C4.213,284.651 38.07,320.874 81.099,324.685L81.099,346.392C81.099,352.341 79.127,358.224 75.542,362.964L63.87,378.431C63.01,379.568 62.204,380.778 61.476,382.027C59.393,385.607 60.606,390.198 64.186,392.282C65.373,392.972 66.67,393.301 67.952,393.301C70.534,393.301 73.049,391.965 74.441,389.572C74.864,388.844 75.331,388.143 75.836,387.477L87.512,372.003C93.049,364.68 96.099,355.584 96.099,346.39L96.1,311.031C96.121,279.978 121.39,254.72 152.45,254.72L256.434,254.72C256.611,254.907 256.767,255.105 256.951,255.287L356.999,354.424L344.832,468.222C344.605,470.338 345.288,472.45 346.711,474.033C348.134,475.616 350.161,476.519 352.289,476.519L358.85,476.519C361.587,476.519 364.163,477.585 366.096,479.512C368.027,481.442 369.089,484.015 369.089,486.759C369.089,492.405 364.495,496.999 358.85,496.999L314.969,496.999C307.426,496.999 301.289,490.862 301.289,483.319L301.289,367C301.289,362.858 297.932,359.5 293.789,359.5C289.646,359.5 286.289,362.858 286.289,367L286.289,391.606C274.075,398.086 248.931,402.122 197.176,391.293C200.69,386.659 203.754,381.631 206.274,376.25L218.114,350.95C219.87,347.198 218.252,342.734 214.5,340.978C210.747,339.224 206.284,340.841 204.528,344.592L192.688,369.891C181.351,394.111 156.741,409.761 129.991,409.761C126.262,409.761 123.098,412.502 122.567,416.194L115.127,467.944C114.817,470.097 115.458,472.279 116.883,473.923C118.308,475.567 120.375,476.511 122.551,476.511L129.112,476.511C134.758,476.511 139.351,481.109 139.351,486.761C139.351,489.498 138.288,492.065 136.34,494.006C134.414,495.938 131.848,497.001 129.111,497.001L85.219,497.001C77.681,497.001 71.549,490.869 71.549,483.331L71.549,415.281C71.549,411.139 68.192,407.781 64.049,407.781C59.906,407.781 56.549,411.139 56.549,415.281L56.549,483.331C56.549,499.14 69.41,512.001 85.219,512.001L129.11,512.001C135.862,512.001 142.202,509.371 146.945,504.613C151.719,499.853 154.349,493.513 154.349,486.761C154.349,473.539 144.139,462.658 131.193,461.596L136.526,424.505C154.711,423.076 171.762,415.727 185.24,404.034C211.263,409.965 233.486,412.936 251.78,412.936C265.507,412.936 277.02,411.26 286.289,407.922L286.289,483.321C286.289,499.135 299.154,512.001 314.969,512.001L358.85,512.001C372.767,512.001 384.089,500.678 384.089,486.761C384.089,480.011 381.466,473.671 376.694,468.9C372.344,464.563 366.693,462.002 360.627,461.583L371.081,363.801C373.053,364.313 375.101,364.582 377.19,364.582C383.684,364.582 389.782,362.045 394.372,357.426C403.739,347.957 403.668,332.62 394.209,323.234L389.908,318.973C391.707,315.728 393.357,312.393 394.803,308.985C400.455,295.686 403.321,281.55 403.321,266.972C403.321,260.217 408.821,254.722 415.581,254.722L458.071,254.722C471.39,254.722 484.409,249.239 493.79,239.679C503.058,230.234 508.026,217.872 507.78,204.871C507.284,178.43 485.353,156.92 458.889,156.92ZM19.213,240.648L19.213,164.271C53.959,168.022 81.1,197.529 81.1,233.255L81.1,309.633C46.354,305.881 19.213,276.375 19.213,240.648ZM299.738,161.252C299.738,133.709 322.146,111.3 349.69,111.3L353.994,111.3L353.994,190.37C353.994,205.328 341.824,217.498 326.866,217.498C311.908,217.498 299.738,205.328 299.738,190.37L299.738,161.252ZM102.281,66.537L76.513,66.537C62.304,66.537 50.744,54.977 50.744,40.769C50.744,26.56 62.304,15 76.513,15C90.721,15 102.281,26.56 102.281,40.769L102.281,66.537ZM483.082,229.171C476.504,235.875 467.387,239.72 458.069,239.72L415.579,239.72C400.548,239.72 388.319,251.944 388.319,266.97C388.319,279.521 385.855,291.683 380.995,303.121C380.306,304.746 379.551,306.346 378.766,307.931L370.228,299.472C367.285,296.556 362.536,296.578 359.622,299.521C356.706,302.463 356.727,307.212 359.67,310.127L383.646,333.883C387.24,337.448 387.267,343.277 383.719,346.862C381.979,348.614 379.659,349.579 377.19,349.579C374.759,349.579 372.468,348.635 370.739,346.921L267.513,244.636C263.919,241.07 263.892,235.242 267.444,231.653C271.006,228.062 276.828,228.036 280.421,231.597L338.371,289.027C341.312,291.943 346.06,291.921 348.977,288.979C351.893,286.037 351.872,281.288 348.929,278.373L298.935,228.829L301.3,223.823C308.396,229.259 317.258,232.499 326.866,232.499C350.095,232.499 368.994,213.6 368.994,190.371L368.994,111.3L389.719,111.3C397.69,111.3 404.999,115.98 408.339,123.221L419.129,146.621C426.217,161.99 441.733,171.92 458.659,171.92L458.888,171.92C477.234,171.92 492.438,186.827 492.78,205.152C492.95,214.095 489.506,222.625 483.082,229.171Z" style="fill:rgb(80,81,96);fill-rule:nonzero;"/>
    </g>
</svg>
