<svg width="65" height="65" viewBox="0 0 65 65" fill="none" xmlns="http://www.w3.org/2000/svg">
<path d="M51.0927 15.7654L43.1345 3.27666C42.5447 2.35298 41.7607 1.59529 40.8476 1.0664C39.9345 0.537506 38.9184 0.252631 37.8838 0.235382L22.7811 0H22.75C14.9528 0 8.97041 1.41685 5.1174 8.33164C1.53021 14.7682 0 25.7324 0 44.9925V47.3463H4.95043L1.76367 65H6.1796L9.36636 47.3463H10.8333C14.372 47.3807 17.7811 45.9015 20.3244 43.2283C22.6237 40.8383 24.2821 37.5686 25.1207 33.7728L25.1283 33.7386L28.8446 14.3929H24.4178L20.8998 32.7068C19.8284 37.5144 16.6246 42.6387 10.8333 42.6387H4.34146C4.45914 25.9757 5.85569 16.0966 8.82443 10.7689C11.3161 6.29661 14.9581 4.70911 22.735 4.7069L37.8215 4.94229C38.1664 4.94799 38.5051 5.04292 38.8094 5.21923C39.1138 5.39553 39.3751 5.64812 39.5717 5.95605L48.574 20.0818L60.6667 22.2714V24.7663L58.65 36.4502C58.0549 39.8987 57.0375 41.6358 52.8653 42.1803L35.7614 45.3593L35.6483 65H39.9816L40.072 49.3334L53.4376 46.8472C56.4655 46.4428 58.6995 45.3827 60.2661 43.6073C61.6054 42.0894 62.4205 40.1501 62.9093 37.3179L65 25.2038V18.2834L51.0927 15.7654Z" fill="#505160"/>
</svg>
