<?xml version="1.0" encoding="UTF-8" standalone="no"?>
<!DOCTYPE svg PUBLIC "-//W3C//DTD SVG 1.1//EN" "http://www.w3.org/Graphics/SVG/1.1/DTD/svg11.dtd">
<svg width="100%" height="100%" viewBox="0 0 512 512" version="1.1" xmlns="http://www.w3.org/2000/svg" xmlns:xlink="http://www.w3.org/1999/xlink" xml:space="preserve" xmlns:serif="http://www.serif.com/" style="fill-rule:evenodd;clip-rule:evenodd;stroke-linejoin:round;stroke-miterlimit:2;">
    <g id="Outline">
        <path d="M488,320L480,320C479.98,302.453 465.547,288.02 448,288L411.747,288L376,245.1L376,207.23L405.23,181.974C405.685,181.581 406.095,181.137 406.45,180.652L494.45,60.713C496.221,58.297 496.491,55.08 495.15,52.402L479.15,20.417C477.796,17.715 475.022,16.001 472,16L391.12,16C384.324,16.006 377.838,18.892 373.285,23.938L327.733,74.527C314.913,88.914 297.943,98.978 279.171,103.327C202.865,120.826 136.7,159.34 92.862,211.769L105.138,222.032C146.748,172.266 209.825,135.646 282.751,118.917C304.732,113.837 324.606,102.066 339.625,85.232L385.172,34.647C386.691,32.964 388.853,32.002 391.12,32L467.06,32L467.602,33.084L410.343,90.343L421.657,101.657L475.147,48.167L478.659,55.188L394.085,170.458L344,213.734L344,192L328,192L328,256C327.999,257.817 328.618,259.581 329.753,261L361.753,301C363.271,302.896 365.572,304.001 368,304L416,304C424.773,304.01 431.99,311.227 432,320L432,328C432.007,334.551 429.067,340.77 424,344.923L424,328C424,323.611 420.389,320 416,320C411.611,320 408,323.611 408,328C408.007,334.551 405.067,340.77 400,344.923L400,328C400,323.611 396.389,320 392,320C387.611,320 384,323.611 384,328C384.007,334.551 381.067,340.77 376,344.923L376,328C376,323.611 372.389,320 368,320C360.183,320.004 352.745,316.583 347.661,310.646L312,269.041L312,208L296,208L296,255.21L258.053,288L232,288L232,249.888C232,231.298 216.702,216 198.112,216C192.851,216 187.662,217.225 182.956,219.578L124.422,248.845L131.578,263.155L190.112,233.889C192.596,232.647 195.336,232 198.113,232C207.926,232 216,240.074 216,249.887C216,249.888 216,249.888 216,249.889L216,296C216,300.389 219.611,304 224,304L264,304C272.773,304.01 279.99,311.227 280,320L280,328C280.007,334.551 277.067,340.77 272,344.923L272,328C272,323.611 268.389,320 264,320C259.611,320 256,323.611 256,328C256.007,334.551 253.067,340.77 248,344.923L248,328C248,323.611 244.389,320 240,320C235.611,320 232,323.611 232,328C232.007,334.551 229.067,340.77 224,344.923L224,328C224,323.611 220.389,320 216,320C207.227,319.99 200.01,312.773 200,304L200,264C200,259.611 196.389,256 192,256C190.758,256 189.533,256.29 188.422,256.845L140.422,280.845L147.578,295.155L184,276.944L184,304C183.995,309.599 185.468,315.1 188.271,319.947L120.013,319.84L120,319.84C115.611,319.84 112,323.451 112,327.84L111.979,330.889C111.808,354.505 111.613,381.273 123.979,403.827C125.639,406.878 127.516,409.807 129.596,412.589C146.296,434.935 171.456,443.75 196.89,436.176C211.631,431.776 224.833,424.002 237.6,416.476C243.015,413.286 261.762,403.234 265.2,401.789C286.937,392.639 308.565,389.272 329.474,391.779C361.022,395.656 390.111,410.866 411.297,434.561L426.189,451.312C427.708,452.9 427.799,455.402 426.4,457.097C424.91,458.717 422.368,458.865 420.7,457.429L401.863,441.302C369.529,413.592 323.726,407.135 287.892,425.234C274.3,432.098 242.114,457.948 237.398,461.453C204.379,485.976 156.141,485.437 117.364,460.109C94.526,445.182 79.609,424.789 71.758,397.76C64.973,374.46 64.017,326.876 64.017,326.876C64.017,296.857 74.711,264.771 94.13,236.528L80.946,227.464C61.164,256.228 49.668,288.822 48.18,320L24,320C19.611,320 16,323.611 16,328L16,400C16,404.389 19.611,408 24,408L58.189,408C67.549,436.009 84.089,457.481 108.605,473.508C130.006,487.655 155.064,495.283 180.718,495.46C204.705,495.46 227.932,488.412 246.932,474.301C251.893,470.615 283.003,445.627 295.098,439.521C325.239,424.296 363.956,429.896 391.447,453.457L410.281,469.582C413.932,472.737 418.599,474.475 423.424,474.475C434.451,474.475 443.524,465.401 443.524,454.375C443.524,449.296 441.599,444.4 438.139,440.682L423.248,423.932C399.466,397.319 366.799,380.24 331.373,375.9C307.673,373.057 283.314,376.809 258.987,387.05C255.655,388.45 252.187,390.092 248.47,392.004L135.957,392.004C128.337,375.284 127.857,355.504 127.948,336.004L208,336.004L208,360.004C208,364.393 211.611,368.004 216,368.004C217.579,368.004 219.124,367.536 220.438,366.66L231.125,359.535C231.42,359.335 231.712,359.135 232,358.935L232,360C232,364.389 235.611,368 240,368C241.579,368 243.124,367.532 244.438,366.656L255.125,359.531C255.42,359.331 255.712,359.131 256,358.931L256,360C256,364.389 259.611,368 264,368C265.579,368 267.124,367.532 268.438,366.656L279.125,359.531C287.32,354.074 293.067,345.626 295.133,336L360,336L360,352L296,352L296,368L432,368L432,358.908C439.736,353.442 445.141,345.261 447.133,336L480,336L480,352L448,352L448,368L480,368L480,392L424,392L424,408L488,408C492.389,408 496,404.389 496,400L496,328C496,323.611 492.389,320 488,320ZM371.845,288L344,253.193L344,234.88L360,221.055L360,248C360,249.871 360.656,251.684 361.854,253.121L390.92,288L371.845,288ZM32,392L32,336L48.077,336C48.338,352.936 49.495,372.821 53.777,392L32,392ZM220.375,408C211.126,413.278 202.026,417.946 192.316,420.843C175.294,425.912 158.94,421.229 146.582,408L220.375,408ZM296,320C295.988,307.978 289.208,296.934 278.492,291.484L296.866,275.606C297.154,276.18 297.51,276.717 297.926,277.206L334.606,320L296,320ZM448,320C448.004,314.38 446.519,308.859 443.695,304L448,304C456.773,304.01 463.99,311.227 464,320L448,320ZM144,368L144,352L192,352L192,368L144,368ZM424,60C424,49.028 414.972,40 404,40C393.028,40 384,49.028 384,60C384,70.972 393.028,80 404,80C414.967,79.987 423.987,70.967 424,60ZM400,60C400,57.806 401.806,56 404,56C406.194,56 408,57.806 408,60C408,62.194 406.194,64 404,64C401.806,64 400,62.194 400,60ZM368,128C359.223,128 352,120.777 352,112C352,103.223 359.223,96 368,96C376.777,96 384,103.223 384,112C383.99,120.773 376.773,127.99 368,128ZM227.969,206.946L220.031,193.054L332.031,129.054L339.969,142.946L227.969,206.946Z" style="fill:rgb(80,81,96);fill-rule:nonzero;"/>
    </g>
</svg>
