<?xml version="1.0" encoding="UTF-8" standalone="no"?>
<!DOCTYPE svg PUBLIC "-//W3C//DTD SVG 1.1//EN" "http://www.w3.org/Graphics/SVG/1.1/DTD/svg11.dtd">
<svg width="100%" height="100%" viewBox="0 0 16 16" version="1.1" xmlns="http://www.w3.org/2000/svg" xmlns:xlink="http://www.w3.org/1999/xlink" xml:space="preserve" xmlns:serif="http://www.serif.com/" style="fill-rule:evenodd;clip-rule:evenodd;stroke-linejoin:round;stroke-miterlimit:2;">
    <g>
        <path d="M5.757,1.071C5.908,1.161 6,1.324 6,1.5C6,1.59 5.976,1.679 5.929,1.757L3.383,6L12.617,6L10.07,1.757C10.023,1.679 9.999,1.591 9.999,1.5C9.999,1.226 10.225,1 10.499,1C10.675,1 10.838,1.092 10.928,1.243L13.783,6L15,6C15.549,6 16,6.451 16,7L16,8C16,8.549 15.549,9 15,9L15,13.5C15,14.871 13.871,16 12.5,16L3.5,16C2.129,16 1,14.871 1,13.5L1,9C0.451,9 0,8.549 0,8L0,7C-0,6.451 0.451,6 1,6L2.217,6L5.07,1.243C5.16,1.092 5.323,1 5.499,1C5.589,1 5.678,1.024 5.756,1.071L5.757,1.071ZM2,9L2,13.5C2,14.323 2.677,15 3.5,15L12.5,15C13.323,15 14,14.323 14,13.5L14,9L2,9ZM1,7L1,8L15,8L15,7L1,7ZM4,10C4.274,10 4.5,10.226 4.5,10.5L4.5,13.5C4.5,13.774 4.274,14 4,14C3.726,14 3.5,13.774 3.5,13.5L3.5,10.5C3.5,10.226 3.726,10 4,10ZM6,10C6.274,10 6.5,10.226 6.5,10.5L6.5,13.5C6.5,13.774 6.274,14 6,14C5.726,14 5.5,13.774 5.5,13.5L5.5,10.5C5.5,10.226 5.726,10 6,10ZM8,10C8.274,10 8.5,10.226 8.5,10.5L8.5,13.5C8.5,13.774 8.274,14 8,14C7.726,14 7.5,13.774 7.5,13.5L7.5,10.5C7.5,10.226 7.726,10 8,10ZM10,10C10.274,10 10.5,10.226 10.5,10.5L10.5,13.5C10.5,13.774 10.274,14 10,14C9.726,14 9.5,13.774 9.5,13.5L9.5,10.5C9.5,10.226 9.726,10 10,10ZM12,10C12.274,10 12.5,10.226 12.5,10.5L12.5,13.5C12.5,13.774 12.274,14 12,14C11.726,14 11.5,13.774 11.5,13.5L11.5,10.5C11.5,10.226 11.726,10 12,10Z" style="fill:rgb(80,81,96);fill-rule:nonzero;"/>
    </g>
    <rect x="0" y="0" width="16" height="16" style="fill-opacity:0;"/>
</svg>
