<svg width="65" height="65" viewBox="0 0 65 65" fill="none" xmlns="http://www.w3.org/2000/svg">
<path d="M22.8268 0C10.6322 0.284337 0.279116 11.1068 0.00710917 23.8541C-0.0864985 27.7124 0.745588 31.5337 2.42745 34.9695C4.10932 38.4052 6.58743 41.3461 9.63569 43.5237V59.2201L17.9283 65L20.6002 60.8129L14.45 56.5278V46.1683C16.0037 46.7926 17.618 47.2373 19.2643 47.4944V54.6506L28.1322 57.7456L29.6535 52.9698L24.0786 51.0297V47.7586C34.6291 47.5019 36.5379 44.1981 39.66 42.8418C45.714 40.2878 47.9333 36.9538 49.0334 34.6942C49.5798 33.5619 49.8904 32.9076 50.3044 32.4622C50.716 32.0219 51.3563 31.5589 53.0389 31.1362L53.0485 31.1261C54.5891 30.7437 55.9178 30.2706 57.0925 29.7422C57.3284 30.4769 57.5908 31.3425 57.8532 32.4144C59.0014 36.8884 60.1857 44.2207 60.1857 55.3577H65C65 43.8483 63.7772 36.0832 62.5182 31.1186C62.1618 29.7104 61.7253 28.3256 61.2112 26.9718C61.7094 26.4685 62.1427 25.9401 62.4893 25.3991C64.0492 22.9407 64.0299 20.3767 64.0299 19.1185C64.0299 16.1896 63.3439 13.1701 61.4182 10.8124C59.4804 8.46218 56.368 7.04553 52.4828 7.04553C50.4029 7.04648 48.3602 7.62235 46.5619 8.71474C44.7635 9.80713 43.2735 11.3772 42.2429 13.2657C38.9715 5.17091 32.2027 0 22.875 0H22.8268ZM22.9135 5.03252C31.6659 5.05265 36.6679 9.32777 38.8488 17.5358L39.3398 19.3727H45.2446L45.6778 17.4352C46.3735 14.3603 49.2212 12.0806 52.4853 12.0806C55.3425 12.0806 56.8013 12.926 57.7497 14.0936C58.7101 15.2636 59.218 17.025 59.218 19.1185C59.218 20.3767 59.2084 21.4662 58.4839 22.6061C57.7617 23.7384 56.1321 25.2028 51.9292 26.2345H51.91C49.6472 26.8133 47.9911 27.7367 46.8622 28.947C45.7236 30.1649 45.2157 31.4432 44.7367 32.427C43.7858 34.3822 43.1191 35.9548 37.8522 38.1767L37.845 38.1867C32.9176 40.3105 33.7793 42.7764 22.875 42.7764C12.5604 42.7764 4.60475 34.6866 4.8214 23.9548C5.02841 14.0659 13.4438 5.26905 22.9135 5.03252Z" fill="#505160"/>
</svg>
