<svg width="68" height="49" viewBox="0 0 68 49" fill="none" xmlns="http://www.w3.org/2000/svg">
<path d="M36.1778 48.3674H45.2003C47.0272 48.3667 48.8107 47.8107 50.3143 46.7732C51.8179 45.7356 52.9705 44.2655 53.6194 42.5577C57.3721 42.8552 61.2268 41.5633 64.0997 38.6818C66.5976 36.1729 68 32.7767 68 29.2364C68 25.6961 66.5976 22.2999 64.0997 19.791L46.1651 1.89035C45.5677 1.29116 44.858 0.815745 44.0766 0.491361C43.2951 0.166977 42.4574 0 41.6113 0C40.7652 0 39.9274 0.166977 39.146 0.491361C38.3646 0.815745 37.6549 1.29116 37.0575 1.89035C35.8505 3.1019 35.1727 4.74242 35.1727 6.45263C35.1727 8.16284 35.8505 9.80335 37.0575 11.0149L42.7609 16.6673C42.2695 17.3259 41.8331 18.0238 41.4562 18.754C40.6994 18.6395 39.9351 18.5827 39.1697 18.584H23.547C22.1488 18.584 20.7974 18.771 19.5139 19.128C18.5557 17.6644 17.2509 16.4601 15.7155 15.622C14.18 14.7838 12.4614 14.3377 10.7121 14.3233C8.96283 14.309 7.23708 14.7267 5.68806 15.5395C4.13903 16.3524 2.81467 17.5351 1.83254 18.9827C0.85041 20.4303 0.240909 22.098 0.0581472 23.8377C-0.124614 25.5775 0.125019 27.3355 0.784883 28.9555C1.44475 30.5756 2.49443 32.0078 3.84073 33.1247C5.18703 34.2417 6.78829 35.0089 8.50236 35.3584V39.3278C8.50236 44.313 12.5313 48.3674 17.5207 48.3674H36.1778ZM43.1604 4.89079V4.89504L61.095 22.7957C62.7969 24.5083 63.7518 26.8249 63.751 29.2394C63.7502 31.6539 62.7938 33.9699 61.0908 35.6814C59.9928 36.7855 58.6284 37.5875 57.1297 38.0097C55.6309 38.4319 54.0485 38.4599 52.5357 38.0911L50.2025 37.5259L49.9262 39.9101C49.6457 42.2815 47.6313 44.1175 45.2003 44.1175H38.29V43.6925C38.29 38.9028 33.9551 35.5709 29.2717 35.5709H23.377C22.8135 35.5709 22.273 35.7948 21.8745 36.1933C21.476 36.5918 21.2521 37.1323 21.2521 37.6959C21.2521 38.2594 21.476 38.7999 21.8745 39.1984C22.273 39.5969 22.8135 39.8208 23.377 39.8208H29.2717C32.2041 39.8208 34.0401 41.797 34.0401 43.6882V44.1175H17.5207C16.893 44.1163 16.2717 43.9915 15.6923 43.7502C15.1129 43.5088 14.5867 43.1557 14.1439 42.7108C13.701 42.266 13.3502 41.7383 13.1114 41.1578C12.8726 40.5773 12.7506 39.9555 12.7523 39.3278V33.6754C12.7523 27.6788 17.5929 22.8339 23.547 22.8339H39.1697C40.1812 22.8339 41.1629 22.9699 42.0852 23.2334L43.8829 23.7349L44.6138 22.0222C45.0856 20.9172 45.7401 19.6082 46.6198 18.6732L48.7575 16.6248L40.0664 8.01447C39.6535 7.59954 39.4217 7.03799 39.4217 6.45263C39.4217 5.86726 39.6535 5.30572 40.0664 4.89079C40.2691 4.68673 40.5101 4.52479 40.7756 4.41428C41.0411 4.30376 41.3258 4.24687 41.6134 4.24687C41.901 4.24687 42.1857 4.30376 42.4512 4.41428C42.7167 4.52479 42.9577 4.68673 43.1604 4.89079ZM15.5445 20.8917C13.7649 22.0148 12.2396 23.4973 11.0664 25.2443C9.89328 26.9912 9.09808 28.964 8.73185 31.0362C7.78414 30.7409 6.91849 30.2284 6.20384 29.5395C5.48919 28.8506 4.9453 28.0043 4.6155 27.068C4.28569 26.1317 4.17909 25.1314 4.30417 24.1467C4.42926 23.1619 4.78257 22.22 5.33598 21.3959C5.88939 20.5719 6.62759 19.8884 7.49179 19.4C8.35598 18.9117 9.32228 18.6318 10.3137 18.5829C11.3052 18.5339 12.2943 18.7171 13.2025 19.118C14.1106 19.5188 14.9125 20.1262 15.5445 20.8917Z" fill="#505160"/>
</svg>
