<?xml version="1.0" encoding="UTF-8" standalone="no"?>
<!DOCTYPE svg PUBLIC "-//W3C//DTD SVG 1.1//EN" "http://www.w3.org/Graphics/SVG/1.1/DTD/svg11.dtd">
<svg width="100%" height="100%" viewBox="0 0 512 512" version="1.1" xmlns="http://www.w3.org/2000/svg" xmlns:xlink="http://www.w3.org/1999/xlink" xml:space="preserve" xmlns:serif="http://www.serif.com/" style="fill-rule:evenodd;clip-rule:evenodd;stroke-linejoin:round;stroke-miterlimit:2;">
    <path d="M158.34,136.207C158.34,125.555 151.621,117.207 143.043,117.207C134.469,117.207 127.75,125.551 127.75,136.207C127.75,146.859 134.469,155.203 143.043,155.203C151.621,155.203 158.34,146.859 158.34,136.207Z" style="fill:rgb(80,81,96);fill-rule:nonzero;"/>
    <path d="M284.812,136.207C284.812,125.555 278.094,117.207 269.52,117.207C260.941,117.207 254.223,125.551 254.223,136.207C254.223,146.859 260.941,155.203 269.52,155.203C278.094,155.203 284.812,146.859 284.812,136.207Z" style="fill:rgb(80,81,96);fill-rule:nonzero;"/>
    <path d="M206.281,194.226C210.445,194.226 213.816,190.855 213.816,186.691L213.816,169.797C222.617,167.273 229.434,160.609 229.434,153.445C229.434,150.82 228.422,144.473 219.059,142.258C215.988,141.531 212.168,141.219 206.281,141.219C200.398,141.219 196.578,141.531 193.504,142.258C184.141,144.473 183.129,150.82 183.129,153.445C183.129,160.609 189.945,167.273 198.746,169.797L198.746,186.691C198.746,190.855 202.121,194.226 206.281,194.226Z" style="fill:rgb(80,81,96);fill-rule:nonzero;"/>
    <path d="M380.422,209.242C389.715,230.887 401.281,257.82 399.019,287.91C397.242,311.523 390.59,336.097 380.285,357.105C378.453,360.844 379.996,365.355 383.734,367.187C384.801,367.711 385.934,367.961 387.047,367.961C389.832,367.961 392.508,366.41 393.82,363.742C404.945,341.051 412.129,314.523 414.047,289.039C416.59,255.265 404.215,226.449 394.269,203.293C388.582,190.047 383.668,178.605 383.234,170.039C382.773,160.922 390.574,151.637 399.934,150.168C405.363,149.312 423.992,149.918 435.641,193.519C436.715,197.539 440.844,199.926 444.867,198.855C448.887,197.781 451.277,193.648 450.203,189.629C444.91,169.832 437.32,155.094 427.637,145.824C418.805,137.367 408.125,133.625 397.59,135.277C380.519,137.961 367.324,153.894 368.184,170.801C368.754,182.07 374.16,194.664 380.422,209.242Z" style="fill:rgb(80,81,96);fill-rule:nonzero;"/>
    <path d="M459.152,274.801C459.156,254.66 458.109,236.305 456.039,220.242C455.512,216.113 451.726,213.203 447.605,213.73C443.476,214.262 440.562,218.039 441.09,222.164C443.078,237.594 444.082,255.301 444.078,274.797C444.07,312.133 436.07,345.676 420.301,374.5C407.695,397.547 390.082,417.719 367.953,434.453C358.269,441.777 348.539,447.801 339.406,452.718C342.875,445.015 344.586,436.172 344.586,426.078C344.586,425.074 344.562,424.011 344.523,422.922C356.566,414.64 367.445,404.097 376.902,391.504C379.402,388.176 378.73,383.453 375.402,380.953C372.074,378.453 367.351,379.125 364.851,382.453C358.238,391.258 350.879,398.922 342.883,405.363C335.723,352.429 307.992,256.301 299.883,228.816C313.098,223.855 325.781,212.965 333.719,197.25L344.449,203.082C348.062,205.039 352.711,203.664 354.668,200.055C356.656,196.398 355.301,191.824 351.644,189.836L339.141,183.043C340.629,177.566 341.582,171.687 341.898,165.433L354.293,163.316C358.398,162.617 361.156,158.726 360.457,154.621C359.754,150.519 355.863,147.766 351.758,148.461L340.828,150.324C335.269,119.144 311.461,79.937 305.465,70.418C305.66,65.359 305.934,53.332 304.82,40.848C302.602,15.957 295.984,2.711 284.594,0.355C273.41,-1.953 262.16,6.988 250.199,27.707C245.168,36.418 241.148,45.23 238.895,50.48L173.668,50.48C171.414,45.23 167.395,36.418 162.363,27.707C150.402,6.988 139.152,-1.957 127.969,0.355C116.578,2.711 109.961,15.957 107.742,40.848C106.629,53.328 106.902,65.359 107.102,70.418C101.102,79.937 77.297,119.144 71.734,150.324L60.805,148.461C56.703,147.762 52.809,150.519 52.109,154.621C51.41,158.726 54.168,162.617 58.27,163.316L70.664,165.433C70.981,171.687 71.938,177.566 73.422,183.043L60.918,189.836C57.262,191.824 55.91,196.398 57.895,200.055C59.856,203.664 64.5,205.043 68.113,203.082L78.844,197.25C86.785,212.969 99.469,223.859 112.688,228.816C110.539,236.113 106.977,248.363 102.805,263.273C101.684,267.281 104.024,271.441 108.031,272.562C112.039,273.687 116.199,271.344 117.32,267.336C124.086,243.14 129.238,226.015 129.289,225.844C130.563,221.625 127.813,217.098 123.488,216.269C105.524,212.836 86.762,193.656 85.66,163.652C85.207,151.277 91.082,132.434 102.652,109.164C111.66,91.055 120.961,76.715 121.055,76.574C121.934,75.223 122.356,73.629 122.262,72.019C122.254,71.875 121.422,57.168 122.754,42.187C124.645,20.992 129.363,15.457 131.024,15.117C132.672,14.766 139.16,17.703 149.238,35.117C156.41,47.508 161.566,60.625 161.617,60.758C162.742,63.648 165.531,65.551 168.637,65.551L243.93,65.551C247.035,65.551 249.82,63.648 250.949,60.758C251,60.625 256.094,47.641 263.25,35.246C273.371,17.723 279.891,14.773 281.543,15.117C283.195,15.457 287.898,20.965 289.797,42.047C291.145,57.031 290.312,71.875 290.301,72.023C290.211,73.629 290.633,75.227 291.512,76.574C291.605,76.715 300.906,91.055 309.914,109.168C321.484,132.434 327.359,151.277 326.902,163.652C325.805,193.656 307.039,212.836 289.074,216.269C284.75,217.098 282.004,221.629 283.273,225.848C283.738,227.383 329.516,379.886 329.516,426.078C329.516,441.531 324.711,452.515 314.398,460.648C305.629,467.562 292.645,472.551 274.934,475.797C279.113,459.297 282.82,436.426 285.957,407.824C291.27,359.383 293.156,310.312 293.176,309.824C293.332,305.664 290.09,302.164 285.93,302.008C281.801,301.832 278.273,305.094 278.113,309.254C278.098,309.707 276.348,355.137 271.488,401.406C268.648,428.414 265.328,450.383 261.617,466.699C256.25,490.281 251.512,495.648 250.156,496.75C248.109,495.234 238.238,484.246 232.539,411.82C229.258,370.117 229.063,329.117 229.063,328.707C229.047,324.554 225.676,321.199 221.527,321.199L221.496,321.199C217.336,321.215 213.977,324.601 213.992,328.762C213.992,329.207 214.199,373.504 217.859,417.226C220.023,443.121 222.965,463.832 226.602,478.789C226.719,479.273 226.844,479.761 226.965,480.258C220.5,480.457 213.664,480.558 206.281,480.558C198.898,480.558 192.066,480.457 185.598,480.258C185.723,479.761 185.844,479.269 185.961,478.789C189.598,463.832 192.543,443.121 194.707,417.226C198.363,373.504 198.57,329.207 198.574,328.762C198.59,324.601 195.227,321.215 191.066,321.199L191.035,321.199C186.887,321.199 183.516,324.554 183.5,328.707C183.5,329.117 183.309,370.043 180.031,411.746C174.332,484.242 164.453,495.234 162.406,496.75C161.465,495.984 158.898,493.164 155.625,483.648C155.496,482.988 155.285,482.355 154.996,481.765C153.723,477.828 152.356,472.898 150.945,466.699C147.234,450.383 143.914,428.414 141.074,401.406C136.215,355.137 134.465,309.707 134.449,309.254C134.289,305.094 130.789,301.828 126.633,302.008C122.473,302.164 119.231,305.664 119.387,309.824C119.406,310.312 121.297,359.383 126.606,407.824C129.742,436.429 133.453,459.297 137.633,475.797C119.957,472.558 106.992,467.59 98.227,460.699C87.871,452.558 83.047,441.558 83.047,426.078C83.047,405.707 92.164,360.816 109.406,296.262C110.481,292.238 108.094,288.109 104.07,287.035C100.055,285.965 95.922,288.347 94.844,292.371C77.016,359.113 67.977,404.101 67.977,426.078C67.977,446.273 74.824,461.472 88.91,472.547C100.918,481.984 118.504,488.328 142.566,491.886C146.836,502.972 152.922,512 162.316,512C171.16,512 176.898,504.379 180.797,495.172C188.691,495.476 197.078,495.629 206.281,495.629C215.484,495.629 223.871,495.476 231.766,495.172C235.664,504.379 241.402,512 250.246,512C259.645,512 265.727,502.972 270,491.886C278.773,490.586 286.676,488.91 293.77,486.855C297.09,486.164 459.113,449.242 459.152,274.801Z" style="fill:rgb(80,81,96);fill-rule:nonzero;"/>
</svg>
