<?xml version="1.0" encoding="UTF-8" standalone="no"?>
<!DOCTYPE svg PUBLIC "-//W3C//DTD SVG 1.1//EN" "http://www.w3.org/Graphics/SVG/1.1/DTD/svg11.dtd">
<svg width="100%" height="100%" viewBox="0 0 512 512" version="1.1" xmlns="http://www.w3.org/2000/svg" xmlns:xlink="http://www.w3.org/1999/xlink" xml:space="preserve" xmlns:serif="http://www.serif.com/" style="fill-rule:evenodd;clip-rule:evenodd;stroke-linejoin:round;stroke-miterlimit:2;">
    <g id="XMLID_2077_">
        <g id="XMLID_126_">
            <path id="XMLID_270_" d="M400.986,111.01C399.116,112.869 398.056,115.45 398.056,118.08C398.056,120.711 399.115,123.291 400.986,125.151C402.846,127.012 405.426,128.082 408.058,128.082C410.688,128.082 413.257,127.013 415.128,125.151C416.988,123.291 418.059,120.711 418.059,118.08C418.059,115.45 416.989,112.869 415.128,111.01C413.268,109.149 410.688,108.078 408.058,108.078C405.426,108.078 402.846,109.149 400.986,111.01Z" style="fill:rgb(80,81,96);fill-rule:nonzero;"/>
            <path id="XMLID_822_" d="M501.998,366.595L366.552,366.595C383.933,358.144 400.144,347.135 414.636,333.752C418.694,330.005 418.946,323.678 415.198,319.619C411.451,315.56 405.122,315.308 401.064,319.057C367.865,349.713 324.677,366.596 279.455,366.595L257.611,366.595C263.889,361.601 269.941,356.231 275.713,350.459C305.947,320.225 322.631,280.007 322.693,237.21C322.749,197.737 308.642,160.485 282.784,131.234L349.467,64.542C361.559,52.449 377.637,45.79 394.738,45.79C430.04,45.79 458.761,74.51 458.761,109.812L458.761,187.292C458.761,208.362 455.143,228.989 448.009,248.598C446.12,253.789 448.797,259.528 453.988,261.416C455.117,261.827 456.271,262.022 457.406,262.022C461.492,262.022 465.329,259.499 466.806,255.436C474.74,233.628 478.763,210.701 478.763,187.291L478.763,144.951L501.996,144.951C506.042,144.951 509.689,142.513 511.237,138.777C512.784,135.039 511.928,130.737 509.068,127.877L477.698,96.506C471.301,56.476 436.54,25.786 394.736,25.786C372.292,25.786 351.191,34.526 335.321,50.397L16.271,369.454C14.065,371.659 13.015,374.767 13.43,377.857C13.845,380.949 15.679,383.669 18.388,385.213C29.542,391.576 41.102,396.805 52.911,400.975L2.93,450.956C1.046,452.839 -0.009,455.397 -0,458.059C0.008,460.723 1.078,463.273 2.974,465.145C17.197,479.195 35.826,486.212 54.453,486.212C73.23,486.212 92.004,479.079 106.255,464.828L161.181,409.902C184.266,405.856 206.724,398.042 227.553,386.599L335.914,386.599L372.38,423.065L372.38,434.924C372.38,463.05 395.263,485.933 423.389,485.933L439.392,485.933C444.915,485.933 449.394,481.455 449.394,475.932L449.394,459.929C449.394,431.803 426.511,408.92 398.385,408.92L386.525,408.92L364.205,386.599L501.998,386.599C507.521,386.599 512,382.121 512,376.597C512,371.074 507.521,366.595 501.998,366.595ZM200.793,281.336C167.261,314.869 122.813,334.817 76.124,337.89L241.679,172.336C244.503,212.57 229.891,252.238 200.793,281.336ZM55.839,358.175C58.368,358.265 60.895,358.326 63.418,358.326C119.976,358.326 174.618,335.801 214.937,295.482C252.163,258.256 268.648,205.876 259.618,154.396L268.615,145.4C290.709,170.84 302.74,203.065 302.691,237.182C302.636,274.646 288.033,309.851 261.569,336.315C203.008,394.875 113.628,409.533 40.015,373.998L55.839,358.175ZM92.11,450.682C73.907,468.887 45.553,471.115 24.868,457.306L74.772,407.402C90.985,411.234 107.499,413.148 123.974,413.148C125.893,413.148 127.811,413.116 129.728,413.065L92.11,450.682ZM429.391,459.93L429.391,465.931L423.39,465.931C406.293,465.931 392.385,452.022 392.385,434.925L392.385,428.924L398.386,428.924C415.483,428.924 429.391,442.833 429.391,459.93Z" style="fill:rgb(80,81,96);fill-rule:nonzero;"/>
            <path id="XMLID_844_" d="M430,285.101C428.14,286.961 427.07,289.541 427.07,292.172C427.07,294.802 428.139,297.383 430,299.243C431.861,301.103 434.441,302.174 437.072,302.174C439.702,302.174 442.283,301.104 444.142,299.243C446.002,297.383 447.073,294.802 447.073,292.172C447.073,289.541 446.003,286.961 444.142,285.101C442.283,283.241 439.711,282.17 437.072,282.17C434.442,282.17 431.862,283.24 430,285.101Z" style="fill:rgb(80,81,96);fill-rule:nonzero;"/>
        </g>
    </g>
</svg>
