<svg width="40" height="33" viewBox="0 0 40 33" fill="none" xmlns="http://www.w3.org/2000/svg">
<path d="M39.71 3.8292C38.2497 4.47629 36.6809 4.91351 35.0318 5.11113C36.7334 4.09292 38.0065 2.49038 38.6135 0.602521C37.0147 1.55214 35.265 2.22057 33.4403 2.57875C32.2132 1.26861 30.588 0.400221 28.8168 0.108417C27.0457 -0.183387 25.2277 0.117717 23.6452 0.964981C22.0627 1.81224 20.8042 3.15827 20.0651 4.79406C19.326 6.42986 19.1476 8.26392 19.5577 10.0115C16.3182 9.84883 13.1492 9.00684 10.2562 7.54016C7.36316 6.07347 4.81088 4.01486 2.76497 1.49795C2.06542 2.70467 1.66318 4.10378 1.66318 5.59382C1.6624 6.9352 1.99273 8.25604 2.62485 9.43914C3.25698 10.6222 4.17135 11.631 5.28685 12.376C3.99317 12.3348 2.72803 11.9852 1.59672 11.3564V11.4613C1.59659 13.3426 2.24736 15.1661 3.43861 16.6222C4.62986 18.0784 6.28821 19.0776 8.13228 19.4502C6.93217 19.775 5.67395 19.8228 4.45264 19.5901C4.97293 21.2089 5.9864 22.6244 7.35117 23.6386C8.71595 24.6528 10.3637 25.2148 12.0638 25.246C9.17781 27.5115 5.6137 28.7404 1.94475 28.735C1.29484 28.7352 0.645469 28.6972 0 28.6213C3.72419 31.0158 8.05942 32.2866 12.487 32.2817C27.4749 32.2817 35.6683 19.8682 35.6683 9.10207C35.6683 8.75229 35.6596 8.39902 35.6439 8.04924C37.2376 6.89669 38.6133 5.46947 39.7065 3.83445L39.71 3.8292Z" fill="#FAFAFA"/>
</svg>
