<svg width="23" height="19" viewBox="0 0 23 19" fill="none" xmlns="http://www.w3.org/2000/svg">
<path d="M1 6.83333H22H1ZM5.66667 12.6667H6.83333H5.66667ZM11.5 12.6667H12.6667H11.5ZM4.5 17.3333H18.5C19.4283 17.3333 20.3185 16.9646 20.9749 16.3082C21.6313 15.6518 22 14.7616 22 13.8333V4.5C22 3.57174 21.6313 2.6815 20.9749 2.02513C20.3185 1.36875 19.4283 1 18.5 1H4.5C3.57174 1 2.6815 1.36875 2.02513 2.02513C1.36875 2.6815 1 3.57174 1 4.5V13.8333C1 14.7616 1.36875 15.6518 2.02513 16.3082C2.6815 16.9646 3.57174 17.3333 4.5 17.3333Z" stroke="#505160" stroke-width="1.5" stroke-linecap="round" stroke-linejoin="round"/>
</svg>
