<svg width="23" height="18" viewBox="0 0 23 18" fill="none" xmlns="http://www.w3.org/2000/svg">
<path d="M3.13937e-09 2.15547C3.13937e-09 1.58381 0.227176 1.03555 0.631551 0.631324C1.03593 0.227094 1.58438 0 2.15625 0H15.0938C15.6656 0 16.2141 0.227094 16.6185 0.631324C17.0228 1.03555 17.25 1.58381 17.25 2.15547V4.31095H18.7163C19.0393 4.31124 19.3582 4.38409 19.6493 4.52412C19.9404 4.66415 20.1963 4.86778 20.3981 5.11997L22.5271 7.77839C22.8334 8.16089 23.0002 8.63631 23 9.12628V12.2144C23 12.786 22.7728 13.3343 22.3685 13.7385C21.9641 14.1427 21.4156 14.3698 20.8438 14.3698H20.125C20.125 15.1321 19.8221 15.8631 19.2829 16.402C18.7438 16.941 18.0125 17.2438 17.25 17.2438C16.4875 17.2438 15.7562 16.941 15.2171 16.402C14.6779 15.8631 14.375 15.1321 14.375 14.3698H7.1875C7.18833 14.7529 7.11253 15.1323 6.96458 15.4857C6.81662 15.839 6.59948 16.1593 6.32593 16.4275C6.05238 16.6958 5.72794 16.9067 5.37168 17.0479C5.01542 17.189 4.63453 17.2575 4.2514 17.2493C3.86827 17.2412 3.49063 17.1566 3.14069 17.0004C2.79075 16.8443 2.47557 16.6198 2.21368 16.3402C1.95178 16.0605 1.74846 15.7313 1.61566 15.372C1.48286 15.0126 1.42326 14.6304 1.44037 14.2477C1.01926 14.0995 0.654527 13.8243 0.396526 13.4601C0.138526 13.0959 -2.40809e-05 12.6606 3.13937e-09 12.2144L3.13937e-09 2.15547ZM1.86013 12.8696C2.12003 12.4443 2.48617 12.0938 2.92258 11.8528C3.35899 11.6117 3.85063 11.4883 4.3492 11.4947C4.84776 11.501 5.33609 11.637 5.76618 11.8891C6.19627 12.1413 6.55332 12.501 6.80225 12.9328H14.7602C15.0131 12.4964 15.3759 12.1337 15.8125 11.881V2.15547C15.8125 1.96492 15.7368 1.78217 15.602 1.64742C15.4672 1.51268 15.2844 1.43698 15.0938 1.43698H2.15625C1.96563 1.43698 1.78281 1.51268 1.64802 1.64742C1.51323 1.78217 1.4375 1.96492 1.4375 2.15547V12.2144C1.43739 12.3527 1.4772 12.488 1.55217 12.6043C1.62714 12.7205 1.73407 12.8126 1.86013 12.8696ZM17.25 11.4959C17.7547 11.4959 18.2504 11.6287 18.6875 11.8809C19.1245 12.1332 19.4874 12.496 19.7397 12.9328H20.8438C21.0344 12.9328 21.2172 12.8572 21.352 12.7224C21.4868 12.5877 21.5625 12.4049 21.5625 12.2144V9.12484C21.5622 8.96179 21.5064 8.80369 21.4044 8.6765L19.2769 6.01809C19.2097 5.93394 19.1244 5.86597 19.0273 5.81921C18.9303 5.77244 18.824 5.74809 18.7163 5.74793H17.25V11.4959ZM4.3125 12.9328C3.93125 12.9328 3.56562 13.0842 3.29603 13.3537C3.02645 13.6232 2.875 13.9887 2.875 14.3698C2.875 14.7509 3.02645 15.1164 3.29603 15.3859C3.56562 15.6554 3.93125 15.8068 4.3125 15.8068C4.69375 15.8068 5.05938 15.6554 5.32897 15.3859C5.59855 15.1164 5.75 14.7509 5.75 14.3698C5.75 13.9887 5.59855 13.6232 5.32897 13.3537C5.05938 13.0842 4.69375 12.9328 4.3125 12.9328ZM17.25 12.9328C16.8688 12.9328 16.5031 13.0842 16.2335 13.3537C15.964 13.6232 15.8125 13.9887 15.8125 14.3698C15.8125 14.7509 15.964 15.1164 16.2335 15.3859C16.5031 15.6554 16.8688 15.8068 17.25 15.8068C17.6312 15.8068 17.9969 15.6554 18.2665 15.3859C18.536 15.1164 18.6875 14.7509 18.6875 14.3698C18.6875 13.9887 18.536 13.6232 18.2665 13.3537C17.9969 13.0842 17.6312 12.9328 17.25 12.9328Z" fill="#505160"/>
</svg>
