<svg width="54" height="57" viewBox="0 0 54 57" fill="none" xmlns="http://www.w3.org/2000/svg">
<path d="M27 25.4166C23.6848 25.4166 20.5054 24.1831 18.1612 21.9874C15.817 19.7916 14.5 16.8136 14.5 13.7083C14.5 10.6031 15.817 7.62502 18.1612 5.42929C20.5054 3.23355 23.6848 2 27 2C30.3152 2 33.4946 3.23355 35.8388 5.42929C38.183 7.62502 39.5 10.6031 39.5 13.7083C39.5 16.8136 38.183 19.7916 35.8388 21.9874C33.4946 24.1831 30.3152 25.4166 27 25.4166Z" stroke="#FAFAFA" stroke-width="3" stroke-linecap="round"/>
<path d="M2 54.6873V51.7602C2 47.1024 3.97544 42.6353 7.49175 39.3417C11.0081 36.0481 15.7772 34.1978 20.75 34.1978H33.25C38.2228 34.1978 42.9919 36.0481 46.5083 39.3417C50.0246 42.6353 52 47.1024 52 51.7602V54.6873" stroke="#FAFAFA" stroke-width="3" stroke-linecap="round"/>
</svg>
