<svg width="35" height="36" viewBox="0 0 35 36" fill="none" xmlns="http://www.w3.org/2000/svg">
<path d="M34.9075 12.5668C34.7975 12.2428 34.595 11.9581 34.3251 11.7479C34.0551 11.5376 33.7295 11.4111 33.3885 11.3838L23.4117 10.591L19.0944 1.0342C18.9569 0.726394 18.7333 0.464959 18.4505 0.281446C18.1677 0.0979327 17.8378 0.000185289 17.5007 2.63164e-07C17.1636 -0.000184763 16.8336 0.0972005 16.5506 0.280403C16.2676 0.463606 16.0437 0.724795 15.9059 1.03245L11.5886 10.591L1.61181 11.3838C1.2766 11.4103 0.956143 11.5329 0.688771 11.7368C0.421399 11.9407 0.218435 12.2173 0.10416 12.5336C-0.0101157 12.8498 -0.0308631 13.1923 0.0443999 13.52C0.119663 13.8477 0.287749 14.1468 0.528549 14.3815L7.90134 21.5688L5.29383 32.8599C5.21465 33.2017 5.24003 33.5593 5.36666 33.8865C5.4933 34.2137 5.71534 34.4953 6.00398 34.6947C6.29263 34.8941 6.63454 35.0021 6.98536 35.0048C7.33617 35.0075 7.67969 34.9046 7.97134 34.7097L17.5001 28.3571L27.029 34.7097C27.327 34.9076 27.6786 35.0095 28.0363 35.0016C28.394 34.9938 28.7408 34.8766 29.0299 34.6658C29.319 34.455 29.5367 34.1607 29.6536 33.8225C29.7704 33.4843 29.781 33.1185 29.6837 32.7741L26.4829 21.5741L34.421 14.4305C34.9408 13.9615 35.1315 13.23 34.9075 12.5668Z" fill="#FDAB91"/>
</svg>
